<?xml version="1.0" encoding="utf-8"?>
<!-- Generator: Adobe Illustrator 28.0.0, SVG Export Plug-In . SVG Version: 6.00 Build 0)  -->
<svg version="1.1" id="Layer_1" xmlns="http://www.w3.org/2000/svg" xmlns:xlink="http://www.w3.org/1999/xlink" x="0px" y="0px"
	 viewBox="0 0 1920 1080" style="enable-background:new 0 0 1920 1080;" xml:space="preserve">
<style type="text/css">
	.st0{fill:#7A9E7E;}
	.st1{fill:#FFFFFF;stroke:#231F20;stroke-width:11;stroke-linecap:round;stroke-linejoin:round;stroke-miterlimit:10;}
	.st2{fill:#231F20;stroke:#231F20;stroke-width:11;stroke-linecap:round;stroke-linejoin:round;stroke-miterlimit:10;}
</style>
<path class="st0" d="M859.5,978.5c-45.4,20.3-127.8,48.7-185.2,11.6c-29.6-19.1-92.2-55.7-67.9-281.2c14.6-135.6-44.2-200.4,3-293
	c81.3-159.7,353.6-158.5,383-158c48.7,0.8,269.4,4.5,324,125c48.2,106.5-87.1,184.9-69,401c6.2,74.4,21,152.3-24.5,190.5
	c-25.3,21.3-60.3,22.1-87,19C1043.8,988.5,1010.7,937.8,859.5,978.5z"/>
<g>
	<g>
		<circle class="st1" cx="860.3" cy="529.4" r="68.9"/>
	</g>
	<g>
		<circle class="st1" cx="1057.3" cy="529.4" r="68.9"/>
	</g>
	<g>
		<path class="st2" d="M1066.1,757.3c16.9,3.4,30.4-13.8,23.2-29.4c-22.8-49.1-72.6-83.1-130.3-83.1c-58,0-107.9,34.3-130.6,83.8
			c-7.2,15.5,6.1,32.7,22.9,29.5c28.5-5.5,71-11.9,111.3-11.9C1001.3,746,1039.6,752,1066.1,757.3z"/>
		<path class="st2" d="M1066.1,757.3c16.9,3.4,30.4-13.8,23.2-29.4c-22.8-49.1-72.6-83.1-130.3-83.1c-58,0-107.9,34.3-130.6,83.8
			c-7.2,15.5,6.1,32.7,22.9,29.5c28.5-5.5,71-11.9,111.3-11.9C1001.3,746,1039.6,752,1066.1,757.3z"/>
		<path class="st2" d="M1066.1,757.3c16.9,3.4,30.4-13.8,23.2-29.4c-22.8-49.1-72.6-83.1-130.3-83.1c-58,0-107.9,34.3-130.6,83.8
			c-7.2,15.5,6.1,32.7,22.9,29.5c28.5-5.5,71-11.9,111.3-11.9C1001.3,746,1039.6,752,1066.1,757.3z"/>
		<path class="st2" d="M1066.1,757.3c16.9,3.4,30.4-13.8,23.2-29.4c-22.8-49.1-72.6-83.1-130.3-83.1c-58,0-107.9,34.3-130.6,83.8
			c-7.2,15.5,6.1,32.7,22.9,29.5c28.5-5.5,71-11.9,111.3-11.9C1001.3,746,1039.6,752,1066.1,757.3z"/>
		<g>
			<path class="st1" d="M901.3,656.7c-13.4,5.9-25.7,13.7-36.6,23.1c3.1,1.5,6.6,2.3,10.2,2.3C888,682.2,898.9,671.2,901.3,656.7z"
				/>
			<path class="st1" d="M930.8,687.8c14.9,0,26.9-14.1,26.9-31.5c0-4.1-0.7-8-1.9-11.6c-18.3,0.4-35.9,4.2-51.9,10.9
				c0,0.2,0,0.5,0,0.7C903.9,673.7,916,687.8,930.8,687.8z"/>
			<path class="st1" d="M986.7,687.8c14.9,0,26.9-14.1,26.9-31.5c0-0.3,0-0.6,0-0.8c-16-6.6-33.5-10.4-51.9-10.8
				c-1.2,3.6-1.9,7.5-1.9,11.6C959.8,673.7,971.9,687.8,986.7,687.8z"/>
			<path class="st1" d="M1016.2,656.6c2.4,14.6,13.3,25.6,26.4,25.6c3.7,0,7.2-0.9,10.3-2.4C1042,670.3,1029.7,662.5,1016.2,656.6z"
				/>
		</g>
	</g>
</g>
</svg>
