<?xml version="1.0" encoding="utf-8"?>
<!-- Generator: Adobe Illustrator 28.0.0, SVG Export Plug-In . SVG Version: 6.00 Build 0)  -->
<svg version="1.1" id="Layer_1" xmlns="http://www.w3.org/2000/svg" xmlns:xlink="http://www.w3.org/1999/xlink" x="0px" y="0px"
	 viewBox="0 0 1920 1080" style="enable-background:new 0 0 1920 1080;" xml:space="preserve">
<style type="text/css">
	.st0{fill:#7A9E7E;}
	.st1{fill:#FFFFFF;stroke:#231F20;stroke-width:11;stroke-linecap:round;stroke-linejoin:round;stroke-miterlimit:10;}
	.st2{fill:#231F20;stroke:#231F20;stroke-width:11;stroke-linecap:round;stroke-linejoin:round;stroke-miterlimit:10;}
</style>
<path class="st0" d="M383.5,1090.5c91.88-80.01,199.49-202.54,217-365c14.61-135.57-44.15-200.38,3-293
	c81.32-159.74,353.59-158.49,383-158c48.71,0.81,269.38,4.49,324,125c48.25,106.46-87.09,184.92-69,401c3,35.84,16.06,191.8,101,225
	c56.17,21.96,115.17-20.95,185,19c12.2,6.98,50.78,29.05,50,50c-4.15,111.07-1117.17,249.97-1191,35
	C380.6,1112.33,382.56,1096.46,383.5,1090.5z"/>
<g>
	<g>
		<circle class="st1" cx="860.3" cy="529.39" r="68.87"/>
	</g>
	<g>
		<circle class="st1" cx="1057.26" cy="529.39" r="68.87"/>
	</g>
	<g>
		<path class="st2" d="M1066.1,757.3c16.88,3.38,30.42-13.84,23.16-29.44c-22.85-49.09-72.62-83.13-130.34-83.13
			c-57.97,0-107.91,34.32-130.63,83.75c-7.15,15.55,6.13,32.69,22.94,29.48c28.55-5.45,70.98-11.93,111.32-11.93
			C1001.26,746.03,1039.64,752,1066.1,757.3z"/>
		<path class="st2" d="M1066.1,757.3c16.88,3.38,30.42-13.84,23.16-29.44c-22.85-49.09-72.62-83.13-130.34-83.13
			c-57.97,0-107.91,34.32-130.63,83.75c-7.15,15.55,6.13,32.69,22.94,29.48c28.55-5.45,70.98-11.93,111.32-11.93
			C1001.26,746.03,1039.64,752,1066.1,757.3z"/>
		<path class="st2" d="M1066.1,757.3c16.88,3.38,30.42-13.84,23.16-29.44c-22.85-49.09-72.62-83.13-130.34-83.13
			c-57.97,0-107.91,34.32-130.63,83.75c-7.15,15.55,6.13,32.69,22.94,29.48c28.55-5.45,70.98-11.93,111.32-11.93
			C1001.26,746.03,1039.64,752,1066.1,757.3z"/>
		<path class="st2" d="M1066.1,757.3c16.88,3.38,30.42-13.84,23.16-29.44c-22.85-49.09-72.62-83.13-130.34-83.13
			c-57.97,0-107.91,34.32-130.63,83.75c-7.15,15.55,6.13,32.69,22.94,29.48c28.55-5.45,70.98-11.93,111.32-11.93
			C1001.26,746.03,1039.64,752,1066.1,757.3z"/>
		<g>
			<path class="st1" d="M901.33,656.73c-13.38,5.86-25.69,13.69-36.57,23.14c3.14,1.5,6.57,2.33,10.16,2.33
				C888.03,682.2,898.94,671.24,901.33,656.73z"/>
			<path class="st1" d="M930.83,687.83c14.86,0,26.9-14.09,26.9-31.48c0-4.09-0.67-8-1.89-11.59c-18.35,0.38-35.86,4.21-51.9,10.86
				c0,0.24-0.02,0.48-0.02,0.73C903.93,673.73,915.97,687.83,930.83,687.83z"/>
			<path class="st1" d="M986.73,687.83c14.86,0,26.9-14.09,26.9-31.48c0-0.28-0.01-0.56-0.02-0.84
				c-16.04-6.61-33.55-10.41-51.89-10.76c-1.22,3.59-1.89,7.5-1.89,11.59C959.83,673.73,971.88,687.83,986.73,687.83z"/>
			<path class="st1" d="M1016.21,656.61c2.36,14.57,13.29,25.59,26.42,25.59c3.66,0,7.15-0.86,10.34-2.41
				C1042.04,670.31,1029.66,662.46,1016.21,656.61z"/>
		</g>
	</g>
</g>
</svg>
